<?xml version="1.0" standalone="no"?>
<!DOCTYPE svg PUBLIC "-//W3C//DTD SVG 20010904//EN"
 "http://www.w3.org/TR/2001/REC-SVG-20010904/DTD/svg10.dtd">
<svg version="1.0" xmlns="http://www.w3.org/2000/svg"
 width="1280.000000pt" height="1134.000000pt" viewBox="0 0 1280.000000 1134.000000"
 preserveAspectRatio="xMidYMid meet">
<g transform="translate(0.000000,1134.000000) scale(0.100000,-0.100000)"
fill="#FFAA15" stroke="none">
<path d="M4045 11329 c-49 -5 -164 -16 -254 -25 -719 -68 -1330 -292 -1711
-626 -449 -394 -752 -904 -930 -1563 -79 -294 -119 -619 -120 -966 0 -349 18
-479 111 -821 137 -500 144 -549 144 -1043 0 -384 -7 -499 -46 -820 -52 -424
-160 -913 -237 -1077 -68 -145 -173 -298 -438 -634 -331 -421 -472 -649 -522
-844 -51 -199 -51 -197 -21 -318 67 -271 292 -513 769 -824 474 -310 832 -519
1215 -708 682 -337 1404 -596 2255 -809 562 -141 864 -196 1220 -221 85 -6
194 -15 241 -21 113 -12 287 -12 407 2 273 30 364 43 452 65 229 58 298 135
380 423 46 161 240 721 312 901 145 364 289 581 526 792 491 438 973 814 2047
1598 502 367 754 554 1115 830 184 141 418 318 520 395 350 263 528 413 715
606 241 249 364 449 470 766 43 127 89 329 105 463 6 52 15 122 21 156 18 119
13 189 -32 466 -48 296 -157 521 -353 725 -288 302 -673 506 -1191 633 -317
77 -574 108 -960 116 -346 6 -332 4 -345 57 -76 304 -317 523 -735 667 -173
59 -374 109 -750 185 -854 172 -953 214 -1730 727 -338 223 -478 307 -667 397
-359 173 -776 281 -1254 326 -93 8 -213 20 -267 25 -114 12 -334 11 -462 -1z
m640 -165 c328 -29 686 -103 987 -205 264 -89 455 -177 717 -334 86 -50 206
-120 266 -155 61 -35 151 -90 200 -123 130 -87 296 -259 272 -283 -3 -4 -48
-11 -99 -16 -635 -63 -1291 -504 -1735 -1168 -133 -199 -236 -422 -297 -641
-18 -68 -54 -194 -79 -279 -91 -315 -82 -488 34 -611 l33 -34 7 25 c4 14 8 48
8 75 2 68 35 283 67 424 197 878 671 1564 1299 1879 321 161 570 212 1033 213
852 1 1753 -286 2157 -686 214 -212 315 -468 315 -797 0 -189 -37 -387 -121
-644 -81 -250 -194 -430 -394 -629 -137 -136 -228 -210 -570 -461 -148 -108
-313 -232 -365 -273 -108 -87 -270 -239 -270 -253 0 -25 209 24 350 83 553
231 1267 955 1389 1409 11 41 32 158 46 260 42 308 56 382 86 464 76 209 211
314 459 357 90 15 363 15 510 -1 715 -76 1196 -417 1413 -1000 79 -214 112
-443 104 -725 -8 -301 -54 -522 -143 -696 -154 -301 -380 -606 -643 -869 -171
-171 -992 -866 -1426 -1206 -321 -253 -708 -525 -965 -679 -63 -38 -227 -144
-365 -236 -427 -285 -612 -378 -828 -415 -158 -27 -267 0 -367 92 -129 120
-131 219 -6 352 74 79 368 326 776 652 338 270 611 497 625 520 9 15 -4 13
-89 -15 -201 -66 -358 -174 -686 -471 -380 -344 -547 -459 -801 -546 -85 -29
-105 -32 -214 -32 -94 -1 -138 4 -202 21 -366 100 -682 378 -700 617 -17 218
145 519 446 828 62 65 107 118 100 118 -8 0 -43 -17 -79 -37 -103 -61 -212
-177 -349 -374 -178 -257 -248 -329 -389 -399 -88 -43 -181 -57 -286 -42 -107
16 -276 69 -446 142 -74 32 -221 91 -325 133 -215 84 -310 129 -406 193 -185
122 -215 228 -143 514 60 242 76 372 81 670 3 185 1 260 -6 250 -6 -8 -11 -25
-11 -37 0 -12 -11 -84 -25 -160 -89 -485 -217 -812 -359 -914 -22 -16 -72 -40
-110 -52 -105 -33 -312 -30 -491 7 -373 77 -675 240 -725 391 -9 27 -3 118 29
452 23 230 43 436 46 458 l5 40 -20 -25 c-32 -41 -76 -164 -130 -369 -69 -262
-108 -355 -188 -443 -92 -102 -325 -177 -487 -158 -73 9 -156 49 -184 89 -85
119 -87 274 -6 651 24 113 48 239 54 279 16 105 14 477 -3 661 -29 305 -39
390 -46 390 -3 0 -14 -91 -24 -202 -59 -685 -129 -1204 -188 -1388 -69 -219
-174 -380 -246 -380 -23 0 -43 10 -68 33 -41 38 -56 85 -80 257 -17 117 -16
226 2 695 11 269 -7 409 -119 955 -80 386 -94 478 -106 700 -45 826 251 1672
793 2273 220 243 405 386 674 521 552 277 1256 388 2027 320z m-2485 -5939
c315 -48 1255 -270 1735 -409 829 -240 1562 -533 2210 -882 266 -143 475 -273
796 -493 108 -75 258 -176 333 -224 407 -263 586 -450 586 -608 -1 -107 -60
-192 -257 -370 -116 -105 -145 -137 -214 -243 -200 -301 -391 -773 -519 -1281
-22 -88 -40 -168 -40 -178 0 -41 -35 -26 -228 101 -1495 984 -3485 1737 -5224
1976 -352 49 -814 86 -1071 86 -106 0 -107 0 -107 23 0 73 130 345 252 527 46
69 161 229 256 357 203 273 293 409 367 554 91 177 112 245 165 524 73 384
185 513 484 555 85 12 351 4 476 -15z m-55 -2954 c399 -72 1025 -236 1530
-401 826 -271 1478 -561 2130 -949 533 -317 805 -533 805 -641 0 -84 -98 -115
-451 -141 -195 -14 -558 -7 -764 16 -656 72 -1347 272 -2135 618 -210 92 -969
468 -1225 606 -249 135 -412 246 -525 360 -113 113 -153 183 -154 272 -2 126
91 228 244 269 102 27 368 23 545 -9z"/>
<path d="M4746 10405 c-106 -20 -237 -65 -338 -116 -371 -186 -708 -551 -809
-879 -28 -89 -33 -258 -10 -299 13 -23 15 -21 50 65 156 379 462 731 816 940
223 131 448 201 725 227 l35 3 -37 17 c-109 50 -295 68 -432 42z"/>
<path d="M11130 7958 c0 -3 18 -74 39 -159 95 -374 94 -575 -5 -828 -69 -176
-117 -255 -340 -553 -136 -181 -191 -265 -181 -275 9 -8 113 55 190 116 235
187 426 500 508 831 31 128 34 396 5 505 -25 95 -67 185 -120 258 -40 57 -96
118 -96 105z"/>
</g>
</svg>
